<mxfile host="app.diagrams.net" modified="2024-01-15T12:47:35.823Z" agent="Mozilla/5.0 (Windows NT 10.0; Win64; x64) AppleWebKit/537.36 (KHTML, like Gecko) Chrome/120.0.0.0 Safari/537.36 OPR/106.0.0.0" etag="cpnFV96wVDkAudVhwoyt" version="22.1.18" type="google">
  <diagram name="Page-1" id="74e2e168-ea6b-b213-b513-2b3c1d86103e">
    <mxGraphModel grid="1" page="1" gridSize="10" guides="1" tooltips="1" connect="1" arrows="1" fold="1" pageScale="1" pageWidth="1100" pageHeight="850" background="none" math="0" shadow="0">
      <root>
        <mxCell id="0" />
        <mxCell id="1" parent="0" />
        <mxCell id="qSMIVQ7cLq_VvXQqjQAj-14" value="" style="rounded=0;whiteSpace=wrap;html=1;" vertex="1" parent="1">
          <mxGeometry x="230" y="-190" width="570" height="770" as="geometry" />
        </mxCell>
        <mxCell id="qSMIVQ7cLq_VvXQqjQAj-1" value="&lt;font style=&quot;font-size: 18px;&quot;&gt;begin&lt;/font&gt;" style="ellipse;whiteSpace=wrap;html=1;" vertex="1" parent="1">
          <mxGeometry x="390" y="-60" width="120" height="60" as="geometry" />
        </mxCell>
        <mxCell id="qSMIVQ7cLq_VvXQqjQAj-2" style="edgeStyle=orthogonalEdgeStyle;rounded=0;orthogonalLoop=1;jettySize=auto;html=1;exitX=0.5;exitY=1;exitDx=0;exitDy=0;" edge="1" parent="1" source="qSMIVQ7cLq_VvXQqjQAj-3">
          <mxGeometry relative="1" as="geometry">
            <mxPoint x="450" y="160" as="targetPoint" />
          </mxGeometry>
        </mxCell>
        <mxCell id="qSMIVQ7cLq_VvXQqjQAj-3" value="&lt;font style=&quot;font-size: 18px;&quot;&gt;a[i] = [2, 5, 13, 7, 6, 4]&amp;nbsp;&lt;/font&gt;" style="shape=parallelogram;perimeter=parallelogramPerimeter;whiteSpace=wrap;html=1;fixedSize=1;" vertex="1" parent="1">
          <mxGeometry x="325" y="40" width="250" height="60" as="geometry" />
        </mxCell>
        <mxCell id="qSMIVQ7cLq_VvXQqjQAj-4" value="" style="endArrow=classic;html=1;rounded=0;exitX=0.5;exitY=1;exitDx=0;exitDy=0;entryX=0.5;entryY=0;entryDx=0;entryDy=0;" edge="1" parent="1" source="qSMIVQ7cLq_VvXQqjQAj-1" target="qSMIVQ7cLq_VvXQqjQAj-3">
          <mxGeometry width="50" height="50" relative="1" as="geometry">
            <mxPoint x="440" y="160" as="sourcePoint" />
            <mxPoint x="490" y="110" as="targetPoint" />
          </mxGeometry>
        </mxCell>
        <mxCell id="qSMIVQ7cLq_VvXQqjQAj-6" value="&lt;font style=&quot;font-size: 18px;&quot;&gt;Sum += a[i]&lt;br&gt;i += 1&lt;br&gt;&lt;/font&gt;" style="rounded=0;whiteSpace=wrap;html=1;" vertex="1" parent="1">
          <mxGeometry x="380" y="260" width="140" height="60" as="geometry" />
        </mxCell>
        <mxCell id="qSMIVQ7cLq_VvXQqjQAj-9" style="edgeStyle=orthogonalEdgeStyle;rounded=0;orthogonalLoop=1;jettySize=auto;html=1;" edge="1" parent="1" target="qSMIVQ7cLq_VvXQqjQAj-11">
          <mxGeometry relative="1" as="geometry">
            <mxPoint x="670" y="490" as="targetPoint" />
            <mxPoint x="670" y="450" as="sourcePoint" />
          </mxGeometry>
        </mxCell>
        <mxCell id="qSMIVQ7cLq_VvXQqjQAj-11" value="&lt;font style=&quot;font-size: 18px;&quot;&gt;end&lt;/font&gt;" style="ellipse;whiteSpace=wrap;html=1;" vertex="1" parent="1">
          <mxGeometry x="620" y="500" width="100" height="50" as="geometry" />
        </mxCell>
        <mxCell id="qSMIVQ7cLq_VvXQqjQAj-12" value="&lt;font style=&quot;font-size: 18px;&quot;&gt;Найти среднее арифметическое среди всех элементов массива [2, 5, 13, 7, 6, 4] с помощью блок-схемы&lt;br&gt;Бердюгин А.А.&lt;br&gt;&lt;/font&gt;" style="text;html=1;strokeColor=none;fillColor=none;align=center;verticalAlign=middle;whiteSpace=wrap;rounded=0;" vertex="1" parent="1">
          <mxGeometry x="267.5" y="-140" width="495" height="10" as="geometry" />
        </mxCell>
        <mxCell id="qSMIVQ7cLq_VvXQqjQAj-15" value="&lt;font style=&quot;font-size: 18px;&quot;&gt;for i = 0 .. len(a):&lt;/font&gt;" style="shape=hexagon;perimeter=hexagonPerimeter2;whiteSpace=wrap;html=1;fixedSize=1;" vertex="1" parent="1">
          <mxGeometry x="350" y="160" width="200" height="40" as="geometry" />
        </mxCell>
        <mxCell id="qSMIVQ7cLq_VvXQqjQAj-20" value="" style="endArrow=classic;html=1;rounded=0;exitX=0.5;exitY=1;exitDx=0;exitDy=0;" edge="1" parent="1" source="qSMIVQ7cLq_VvXQqjQAj-15">
          <mxGeometry width="50" height="50" relative="1" as="geometry">
            <mxPoint x="460" y="440" as="sourcePoint" />
            <mxPoint x="450" y="260" as="targetPoint" />
          </mxGeometry>
        </mxCell>
        <mxCell id="qSMIVQ7cLq_VvXQqjQAj-21" value="&lt;font style=&quot;font-size: 18px;&quot;&gt;SrAr = Sum / len(a)&lt;/font&gt;" style="rounded=0;whiteSpace=wrap;html=1;" vertex="1" parent="1">
          <mxGeometry x="570" y="260" width="170" height="60" as="geometry" />
        </mxCell>
        <mxCell id="qSMIVQ7cLq_VvXQqjQAj-22" value="" style="endArrow=classic;html=1;rounded=0;exitX=0;exitY=0.5;exitDx=0;exitDy=0;entryX=0;entryY=0.5;entryDx=0;entryDy=0;" edge="1" parent="1" source="qSMIVQ7cLq_VvXQqjQAj-6" target="qSMIVQ7cLq_VvXQqjQAj-15">
          <mxGeometry width="50" height="50" relative="1" as="geometry">
            <mxPoint x="210" y="290" as="sourcePoint" />
            <mxPoint x="260" y="240" as="targetPoint" />
            <Array as="points">
              <mxPoint x="280" y="290" />
              <mxPoint x="280" y="180" />
            </Array>
          </mxGeometry>
        </mxCell>
        <mxCell id="qSMIVQ7cLq_VvXQqjQAj-23" value="" style="endArrow=classic;html=1;rounded=0;exitX=1;exitY=0.5;exitDx=0;exitDy=0;entryX=0.565;entryY=0.03;entryDx=0;entryDy=0;entryPerimeter=0;" edge="1" parent="1" source="qSMIVQ7cLq_VvXQqjQAj-15" target="qSMIVQ7cLq_VvXQqjQAj-21">
          <mxGeometry width="50" height="50" relative="1" as="geometry">
            <mxPoint x="460" y="440" as="sourcePoint" />
            <mxPoint x="510" y="390" as="targetPoint" />
            <Array as="points">
              <mxPoint x="668" y="180" />
            </Array>
          </mxGeometry>
        </mxCell>
        <mxCell id="qSMIVQ7cLq_VvXQqjQAj-26" value="" style="endArrow=classic;html=1;rounded=0;exitX=0.552;exitY=1.057;exitDx=0;exitDy=0;exitPerimeter=0;entryX=0.448;entryY=-0.04;entryDx=0;entryDy=0;entryPerimeter=0;" edge="1" parent="1" source="qSMIVQ7cLq_VvXQqjQAj-21" target="qSMIVQ7cLq_VvXQqjQAj-27">
          <mxGeometry width="50" height="50" relative="1" as="geometry">
            <mxPoint x="690" y="380" as="sourcePoint" />
            <mxPoint x="740" y="330" as="targetPoint" />
          </mxGeometry>
        </mxCell>
        <mxCell id="qSMIVQ7cLq_VvXQqjQAj-27" value="&lt;font style=&quot;font-size: 18px;&quot;&gt;SrAr&lt;/font&gt;" style="shape=document;whiteSpace=wrap;html=1;boundedLbl=1;" vertex="1" parent="1">
          <mxGeometry x="610" y="385" width="120" height="80" as="geometry" />
        </mxCell>
      </root>
    </mxGraphModel>
  </diagram>
</mxfile>
